:SAMPLES-PER-SECOND 24
:FULLY-SPECIFIED
:DEGREES
460
root  -4.82489 37.5366 51.2741 156.207 75.4626 152.573
RightUpLeg  -7.19272 -21.3938 -27.9334
RightLeg  30.8496 4.29879 2.61152
RightFoot  -11.7419 -0.00337347 24.4469
RightToes  -1.46203e-006 3.27826e-006 1.63871e-007
Spine  8.65626 1.86174 7.69509
Spine1  8.40865 6.11041 -15.0621
HEad  -31.6675 46.8495 -34.7097
LeftShoulder1  2.14668 -3.37524 -25.0231
LeftArm  6.03288 8.00117 -29.4209
LeftForeArm  21.1517 -62.143 -19.701
LeftHand  -0.00143691 5.43054 19.5682
RightShoulder  3.28031 5.88321 29.0138
RightArm  7.92595 -23.5161 31.4176
RightForeArm  21.5663 64.3218 21.9924
RightHand  0.00989028 -3.16656 1.34669
LeftUpLeg  -26.2617 21.3089 13.2051
LeftLeg  27.5124 -4.746 -2.34008
LeftFoot  12.3782 2.41838 -11.838
LeftToes  1.24767e-006 1.47042e-008 1.32732e-009
461
root  -5.32019 35.595 50.9704 160.169 73.7256 156.299
RightUpLeg  -12.3637 -25.0237 -30.4715
RightLeg  44.3857 7.34957 7.31593
RightFoot  -19.9415 1.74707 24.6885
RightToes  -1.46203e-006 3.27826e-006 1.63871e-007
Spine  10.7211 0.18905 7.66925
Spine1  9.5464 4.37523 -14.3671
HEad  -39.4548 44.2726 -39.4305
LeftShoulder1  2.36019 -3.76439 -26.353
LeftArm  -1.14449 0.729452 -30.4481
LeftForeArm  21.486 -63.7227 -21.2503
LeftHand  -0.0118643 5.36578 19.8618
RightShoulder  3.50564 6.03286 30.8604
RightArm  9.22702 -12.9653 30.0915
RightForeArm  15.2547 55.4798 15.362
RightHand  -0.0678975 -3.11472 -2.07688
LeftUpLeg  -31.6278 20.4546 14.0677
LeftLeg  24.9476 -5.72606 -2.56185
LeftFoot  16.7569 3.39833 -13.931
LeftToes  1.24767e-006 1.47042e-008 1.32732e-009
462
root  -5.64016 34.1668 50.0935 166.812 72.2311 163.589
RightUpLeg  -13.5483 -27.5927 -32.857
RightLeg  51.1813 8.0842 10.2861
RightFoot  -21.9214 2.21883 25.2215
RightToes  -1.46203e-006 3.27826e-006 1.63871e-007
Spine  12.5865 -1.41767 8.70801
Spine1  10.4902 2.50436 -12.5057
HEad  -45.3187 43.1499 -42.5909
LeftShoulder1  2.36172 -3.99009 -25.3568
LeftArm  -3.51706 -8.12318 -31.9673
LeftForeArm  21.0156 -62.4091 -19.9725
LeftHand  -0.21175 4.20985 20.1702
RightShoulder  3.71189 6.2014 32.3634
RightArm  6.87051 -2.64708 31.4306
RightForeArm  13.0672 45.5345 10.5369
RightHand  -0.0596409 -4.87458 -11.511
LeftUpLeg  -36.2383 20.0694 15.6111
LeftLeg  24.4415 -7.6007 -3.41337
LeftFoot  20.1929 4.92136 -17.7255
LeftToes  1.24767e-006 1.47042e-008 1.32732e-009
463
root  -5.6623 33.1571 48.6764 172.012 72.0868 168.776
RightUpLeg  -12.3877 -29.19 -35.1369
RightLeg  52.4435 10.0385 13.355
RightFoot  -23.5546 2.78078 27.0295
RightToes  -1.46203e-006 3.27826e-006 1.63871e-007
Spine  13.5968 -1.88456 7.93054
Spine1  9.90971 1.2941 -10.7399
HEad  -49.3005 43.3843 -44.1987
LeftShoulder1  2.21458 -4.0468 -23.0605
LeftArm  -4.20733 -14.9094 -29.6848
LeftForeArm  21.1282 -63.4039 -20.9684
LeftHand  -0.197829 4.36386 21.7477
RightShoulder  3.7044 6.18966 32.3328
RightArm  0.00691563 1.36079 35.0476
RightForeArm  13.0039 45.2097 10.3874
RightHand  0.139219 -6.30226 -19.2319
LeftUpLeg  -40.7625 19.4147 17.2914
LeftLeg  30.2801 -10.1082 -5.98434
LeftFoot  17.9026 5.41932 -21.0003
LeftToes  1.24767e-006 1.47042e-008 1.32732e-009
464
root  -5.24091 33.2832 46.0345 175.623 73.8614 172.296
RightUpLeg  -7.58967 -27.7949 -38.0334
RightLeg  43.2649 12.3391 12.0557
RightFoot  -18.0483 1.83505 33.9375
RightToes  -1.46203e-006 3.27826e-006 1.63871e-007
Spine  12.7061 -1.30847 6.27367
Spine1  8.79847 0.561636 -6.63671
HEad  -50.8694 45.6786 -44.0558
LeftShoulder1  1.99017 -3.92589 -20.3547
LeftArm  -7.75974 -17.1615 -24.6657
LeftForeArm  20.6508 -65.9645 -24.0817
LeftHand  0.110958 5.93916 24.2013
RightShoulder  3.63426 6.11416 31.902
RightArm  -4.27596 -0.37267 35.7078
RightForeArm  14.2178 55.1946 15.1946
RightHand  -0.181327 -4.31046 -18.8724
LeftUpLeg  -41.7329 18.864 16.8772
LeftLeg  38.1636 -10.1281 -8.05154
LeftFoot  10.3158 3.42064 -17.9939
LeftToes  1.24767e-006 1.47042e-008 1.32732e-009
465
root  -4.43195 34.5136 42.397 177.196 77.6832 174.183
RightUpLeg  -0.153671 -19.7725 -39.1928
RightLeg  21.3486 5.50938 2.49264
RightFoot  -0.50714 -3.53366 36.9331
RightToes  -1.46203e-006 3.27826e-006 1.63871e-007
Spine  10.4632 0.242839 4.62777
Spine1  7.12709 0.74444 -1.41473
HEad  -48.1145 49.9656 -42.0707
LeftShoulder1  1.76394 -3.74348 -17.7207
LeftArm  -9.45527 -14.41 -19.8607
LeftForeArm  20.2981 -65.8105 -23.9172
LeftHand  0.126863 5.98953 24.7754
RightShoulder  3.56663 6.06097 31.4031
RightArm  -3.75968 -4.93309 30.0285
RightForeArm  25.8629 68.0686 26.7909
RightHand  -0.314142 -2.69473 -13.0366
LeftUpLeg  -37.9007 18.4457 13.8984
LeftLeg  42.0003 -7.59377 -6.85687
LeftFoot  1.5503 1.65934 -14.855
LeftToes  1.24767e-006 1.47042e-008 1.32732e-009
466
root  -3.67301 36.0452 38.7082 154.788 83.8468 152.841
RightUpLeg  2.7435 -15.6618 -37.6252
RightLeg  9.10033 -0.856346 -1.36855
RightFoot  12.7849 -5.26233 25.1033
RightToes  -1.46203e-006 3.27826e-006 1.63871e-007
Spine  8.61743 2.58617 4.8965
Spine1  6.62455 2.54943 0.275946
HEad  -44.0102 52.8493 -40.373
LeftShoulder1  1.57339 -3.46182 -15.8117
LeftArm  -6.0914 -4.85285 -15.3215
LeftForeArm  25.8061 -67.8094 -25.8551
LeftHand  -0.0603101 5.10998 23.7267
RightShoulder  3.30934 5.85134 29.4529
RightArm  -2.24284 -7.63198 22.0465
RightForeArm  57.2379 77.8172 56.1111
RightHand  -0.273816 -2.08529 -9.38849
LeftUpLeg  -30.9378 18.449 9.61968
LeftLeg  40.966 -2.75171 -2.13958
LeftFoot  -3.57838 0.931533 -13.1312
LeftToes  1.24767e-006 1.47042e-008 1.32732e-009
467
root  -3.20728 38.0517 35.0035 58.3805 85.8223 58.8642
RightUpLeg  -2.23172 -19.652 -34.2003
RightLeg  23.6521 1.82261 0.657541
RightFoot  8.17598 -2.52557 14.9376
RightToes  -1.46203e-006 3.27826e-006 1.63871e-007
Spine  8.17834 4.4077 9.75438
Spine1  8.7796 5.09212 -0.918427
HEad  -39.4634 54.2022 -38.8322
LeftShoulder1  1.47027 -3.09683 -15.4714
LeftArm  -0.229043 10.3939 -11.459
LeftForeArm  41.4347 -74.8707 -41.26
LeftHand  0.0689344 5.76663 22.6693
RightShoulder  2.9799 5.62715 26.6293
RightArm  -1.50799 -4.48483 17.7592
RightForeArm  87.4862 79.829 89.0101
RightHand  -0.335504 -1.64875 -10.2599
LeftUpLeg  -21.4645 20.3514 3.647
LeftLeg  34.1604 2.64636 2.29745
LeftFoot  0.555509 0.820338 -7.89832
LeftToes  1.24767e-006 1.47042e-008 1.32732e-009
468
root  -3.10474 39.9555 31.9907 48.4846 77.9662 51.1654
RightUpLeg  -6.82672 -20.2909 -29.6678
RightLeg  43.5564 2.46561 2.23157
RightFoot  2.05381 -1.86364 15.8838
RightToes  -1.46203e-006 3.27826e-006 1.63871e-007
Spine  8.46241 5.7483 11.4704
Spine1  11.707 7.49389 -4.77734
HEad  -30.277 55.6881 -34.4221
LeftShoulder1  1.59036 -3.15217 -17.2218
LeftArm  5.3775 23.6108 -11.2337
LeftForeArm  67.7445 -79.1728 -68.6239
LeftHand  0.131819 6.14797 21.0046
RightShoulder  2.7986 5.56548 24.7717
RightArm  -0.38685 1.22741 18.7418
RightForeArm  89.3715 79.693 93.5346
RightHand  -0.501158 -0.916693 -12.9706
LeftUpLeg  -16.2839 24.0933 -4.28139
LeftLeg  28.6391 -3.8323 -1.89813
LeftFoot  14.7334 2.96449 -12.3032
LeftToes  1.24767e-006 1.47042e-008 1.32732e-009
469
root  -3.21906 41.439 29.1784 58.2009 71.9011 61.3862
RightUpLeg  -9.4558 -20.9003 -23.434
RightLeg  53.5246 4.91436 6.80709
RightFoot  3.69808 -2.56936 19.4261
RightToes  -1.46203e-006 3.27826e-006 1.63871e-007
Spine  8.85659 6.3953 12.963
Spine1  12.6164 9.53594 -8.61401
HEad  -21.5464 54.9511 -30.5316
LeftShoulder1  1.91354 -3.60865 -20.4689
LeftArm  7.58023 29.8364 -15.0368
LeftForeArm  87.4082 -79.9625 -85.9685
LeftHand  -0.114991 4.72899 19.074
RightShoulder  2.76389 5.4887 24.6438
RightArm  1.39285 5.28894 21.6976
RightForeArm  95.959 79.6366 98.9565
RightHand  -0.590589 -0.268307 -13.4142
LeftUpLeg  -19.3112 22.9034 -10.6796
LeftLeg  32.9035 -19.1808 -12.7875
LeftFoot  25.8687 10.134 -30.1945
LeftToes  1.24767e-006 1.47042e-008 1.32732e-009
470
root  -3.55357 42.2344 26.3938 65.8291 67.1293 68.855
RightUpLeg  -10.5368 -23.3868 -17.1931
RightLeg  53.8596 10.1928 14.1935
RightFoot  5.94471 -3.20392 21.1149
RightToes  -1.46203e-006 3.27826e-006 1.63871e-007
Spine  10.7825 6.02314 14.5812
Spine1  11.9266 10.8905 -12.405
HEad  -20.764 51.3193 -31.2775
LeftShoulder1  2.15259 -3.8438 -23.0252
LeftArm  6.87836 29.5344 -20.7571
LeftForeArm  107.966 -79.9215 -102.577
LeftHand  -0.237356 3.95702 18.6186
RightShoulder  2.84167 5.48868 25.5501
RightArm  2.2027 8.82739 23.4934
RightForeArm  110.995 79.15 111.429
RightHand  -0.520372 0.412671 -10.4785
LeftUpLeg  -27.7987 17.8016 -13.1613
LeftLeg  47.9477 -20.567 -22.4944
LeftFoot  19.5559 11.1581 -39.5644
LeftToes  1.24767e-006 1.47042e-008 1.32732e-009
471
root  -4.12055 42.5007 23.7078 70.425 59.5074 73.1155
RightUpLeg  -10.5541 -26.7424 -15.8782
RightLeg  45.7891 13.7267 14.3816
RightFoot  9.13929 -3.51475 19.6333
RightToes  -1.46203e-006 3.27826e-006 1.63871e-007
Spine  13.5196 5.7728 11.9768
Spine1  11.327 12.0622 -17.0067
HEad  -21.6782 48.3514 -32.4106
LeftShoulder1  2.23298 -3.86256 -24.0952
LeftArm  7.16974 24.2099 -25.8126
LeftForeArm  127.264 -78.9372 -119.037
LeftHand  -0.192723 4.29615 19.7235
RightShoulder  2.93619 5.62234 26.1482
RightArm  1.3784 11.9393 23.9022
RightForeArm  121.304 78.4966 119.772
RightHand  -0.456757 1.43218 -7.91956
LeftUpLeg  -38.355 17.7586 -14.8067
LeftLeg  62.9022 -10.7535 -21.1601
LeftFoot  12.8367 7.88543 -36.0794
LeftToes  1.24767e-006 1.47042e-008 1.32732e-009
472
root  -4.57615 42.2996 21.1245 72.4672 51.5056 74.264
RightUpLeg  -10.7128 -33.5205 -16.6062
RightLeg  32.0491 9.74805 6.08771
RightFoot  15.1873 -2.9589 13.0961
RightToes  -1.46203e-006 3.27826e-006 1.63871e-007
Spine  15.1913 5.56615 9.43489
Spine1  10.0978 12.5216 -19.974
HEad  -20.0739 48.0591 -33.6095
LeftShoulder1  2.26137 -3.87865 -24.4311
LeftArm  9.48584 16.7163 -29.491
LeftForeArm  139.939 -77.5731 -129.836
LeftHand  -0.226548 4.13343 20.3575
RightShoulder  2.86838 5.60919 25.4175
RightArm  -0.748245 12.5326 21.7417
RightForeArm  129.355 77.3262 128.127
RightHand  -0.563099 2.05861 -8.94008
LeftUpLeg  -48.5669 21.7337 -14.3138
LeftLeg  74.652 -5.34468 -20.8084
LeftFoot  12.4924 6.67227 -31.2723
LeftToes  1.24767e-006 1.47042e-008 1.32732e-009
473
root  -4.87654 41.246 18.3329 74.7271 44.814 75.6682
RightUpLeg  -9.05333 -35.9606 -19.5293
RightLeg  19.2634 -4.83735 1.72001
RightFoot  9.7815 -0.103549 0.059263
RightToes  -1.46203e-006 3.27826e-006 1.63871e-007
Spine  15.8635 4.46154 8.01688
Spine1  8.37884 10.7224 -19.6948
HEad  -20.0568 49.4435 -36.2886
LeftShoulder1  2.12451 -3.71108 -23.1741
LeftArm  11.9182 10.9353 -32.6655
LeftForeArm  151.272 -74.7095 -141.625
LeftHand  -0.209417 4.23032 20.2761
RightShoulder  2.63437 5.37198 23.5313
RightArm  -4.03932 11.9567 15.4878
RightForeArm  130.522 76.5131 131.784
RightHand  -0.815613 2.35363 -12.3726
LeftUpLeg  -58.0015 27.7833 -11.1123
LeftLeg  85.9664 -1.20815 -24.8123
LeftFoot  8.26533 5.5398 -31.6558
LeftToes  1.24767e-006 1.47042e-008 1.32732e-009
